<?xml version="1.0" encoding="utf-8"?>
<!-- Generator: Adobe Illustrator 21.1.0, SVG Export Plug-In . SVG Version: 6.00 Build 0)  -->
<svg version="1.1" id="Layer_1" xmlns="http://www.w3.org/2000/svg" xmlns:xlink="http://www.w3.org/1999/xlink" x="0px" y="0px"
	 viewBox="0 0 351 183.8" style="enable-background:new 0 0 351 183.8;" xml:space="preserve">
<style type="text/css">
	.st0{opacity:0.6;}
	.st1{opacity:0.7;enable-background:new    ;}
	.st2{fill:#231F20;}
	.st3{enable-background:new    ;}
	.st4{fill:#FFFFFF;}
	.st5{opacity:0.7;}
	.st6{fill:none;stroke:#FFFFFF;stroke-miterlimit:10;}
</style>
<g class="st0">
	<path d="M179,182c-2.5,0-5,0-7.5,0c-0.4-0.1-0.7-0.1-1.1-0.2c-6.1-0.3-12.1-1.2-18-2.8c-11.5-3-21.9-8.1-31.4-15.2
		c-0.4-0.3-0.7-0.4-1.2-0.2c-6.4,3-13.1,4-20.1,3c-8.5-1.2-15.6-5-21-11.7c-0.6-0.7-1-0.8-1.9-0.7c-8.6,1.8-17.3,1.9-26,0.1
		c-13.6-2.8-25.1-9.4-34.4-19.6C7.3,124.7,2,113,0.3,99.7c-0.2-1.6-0.4-3.1-0.5-4.7c0-2.2,0-4.4,0-6.5c0.1-0.3,0.1-0.5,0.2-0.8
		c0.3-5.1,1.2-10.1,2.8-15C12.9,40.9,45,22.3,77.5,29.3c0.5,0.1,0.8,0,1.2-0.4c2-1.9,3.8-4.1,6-5.7c10.9-7.5,22.6-8.4,34.7-3.4
		c0.6,0.3,1.1,0.3,1.7-0.1c2.9-2,5.8-4.1,8.9-5.9C141.7,7,154.3,3,167.8,1.9c1.3-0.1,2.7-0.2,4-0.3c2.4,0,4.7,0,7.1,0
		c0.4,0.1,0.8,0.1,1.2,0.2c5.3,0.3,10.6,1,15.8,2.2c12.3,2.9,23.5,8.1,33.7,15.7c0.4,0.3,0.7,0.5,1.2,0.2c6.5-3,13.4-3.9,20.5-2.8
		c8.3,1.3,15.2,5.1,20.6,11.6c0.4,0.5,0.8,0.6,1.4,0.5c8.6-1.9,17.3-2,26-0.2c14.3,2.9,26.3,9.9,35.9,20.9
		c8.4,9.7,13.5,21.1,15.1,33.9c0.2,1.7,0.4,3.3,0.5,5c0,2,0,4,0,6c-0.1,0.3-0.1,0.7-0.2,1c-0.2,3.8-0.8,7.5-1.7,11.2
		c-6.6,27.8-32.1,48.3-60.7,48.7c-5,0.1-10-0.4-14.8-1.4c-0.6-0.1-1,0-1.4,0.5c-0.7,0.9-1.4,1.7-2.1,2.5
		c-9.8,9.9-25.7,12.7-38.8,6.7c-0.7-0.3-1.1-0.3-1.7,0.2c-13.8,10.3-29.3,16.2-46.5,17.7C181.6,181.7,180.3,181.9,179,182z"/>
</g>
<g class="st1">
	<path class="st2" d="M91.2,74.3h13.9l8,40.6l8.4-40.6H135l1.2,64.4h-9.5l-1-43.7l-8.3,43.7h-8.1l-8.5-44l-1,44h-9.6L91.2,74.3z"/>
	<path class="st2" d="M146.6,74.3h28.1v9.1h-15v17.1h11.6v9.1h-11.6v20.2h15.2v8.9h-28.2V74.3z"/>
	<path class="st2" d="M182.4,74.3h9.1l14.3,33.5V74.3h10.9v64.4H208l-14.3-35.6v35.6h-11.2V74.3z"/>
	<path class="st2" d="M234.4,137.2c-2.7-1.6-4.6-4-5.7-7c-1.1-3.1-1.7-7-1.7-11.8V74.3h12.9v45.9c0,3.1,0.4,5.5,1.1,7.2
		c0.7,1.7,2.3,2.6,4.6,2.6s3.9-0.9,4.6-2.6c0.7-1.7,1.1-4.2,1.1-7.2V74.3h13v44.1c0,4.8-0.6,8.7-1.7,11.8c-1.1,3.1-3,5.4-5.8,7
		c-2.7,1.6-6.5,2.4-11.3,2.4C240.8,139.6,237.1,138.8,234.4,137.2z"/>
</g>
<g class="st3">
	<path class="st4" d="M88.5,71h13.9l8,40.6l8.4-40.6h13.4l1.2,64.4h-9.5l-1-43.7l-8.3,43.7h-8.1l-8.5-44l-1,44h-9.6L88.5,71z"/>
	<path class="st4" d="M143.9,71h28.1V80h-15v17.1h11.6v9.1h-11.6v20.2h15.2v8.9h-28.2V71z"/>
	<path class="st4" d="M179.7,71h9.1l14.3,33.5V71h10.9v64.4h-8.8l-14.3-35.6v35.6h-11.2V71z"/>
	<path class="st4" d="M231.7,133.8c-2.7-1.6-4.6-4-5.7-7c-1.1-3.1-1.7-7-1.7-11.8V71h12.9v45.9c0,3.1,0.4,5.5,1.1,7.2
		s2.3,2.6,4.6,2.6c2.3,0,3.9-0.9,4.6-2.6s1.1-4.2,1.1-7.2V71h13V115c0,4.8-0.6,8.7-1.7,11.8c-1.1,3.1-3,5.4-5.8,7
		c-2.7,1.6-6.5,2.4-11.3,2.4S234.4,135.5,231.7,133.8z"/>
</g>
<g class="st5">
	<g class="st3">
		<path class="st2" d="M113.3,50.6h-2.1v-1.7h6.6v1.7h-2l4.6,12.3l4.5-12.3h-2v-1.7h6.4v1.7h-2.1l-5.7,15h-2.2L113.3,50.6z"/>
		<path class="st2" d="M130,63.9h1.9V50.6H130v-1.7h6.2v1.7h-1.9v13.3h1.9v1.7H130V63.9z"/>
		<path class="st2" d="M138.2,63.9h2.3V50.6h-2.3v-1.7h14v4.6h-1.9v-2.9h-7.6v5.5h5.2v-1.6h1.4v5.2H148V58h-5.2v5.9h7.6v-3h1.9v4.7
			h-14V63.9z"/>
		<path class="st2" d="M155.3,50.6h-2.1v-1.7h6.4v1.7h-2.1l3.5,11.9l1.8-6l1.7-6h-2v-1.7h7.5v1.7h-2l3.5,11.9l1.8-6l1.7-6h-2.1v-1.7
			h6.2v1.7H177l-4.5,15.1h-2.3l-4.1-13.6l-4.1,13.6h-2.2L155.3,50.6z"/>
		<path class="st2" d="M186.1,57.3c0-1.2,0.2-2.3,0.6-3.4c0.4-1,1-2,1.7-2.7c0.7-0.8,1.6-1.4,2.7-1.8c1.1-0.4,2.3-0.7,3.6-0.7
			c1.3,0,2.5,0.2,3.6,0.7c1.1,0.4,2,1.1,2.7,1.8c0.7,0.8,1.3,1.7,1.7,2.7s0.6,2.2,0.6,3.4s-0.2,2.3-0.6,3.4s-1,2-1.7,2.7
			c-0.7,0.8-1.6,1.4-2.7,1.8c-1.1,0.4-2.3,0.7-3.6,0.7c-1.3,0-2.5-0.2-3.6-0.7c-1.1-0.4-2-1.1-2.7-1.8c-0.7-0.8-1.3-1.7-1.7-2.7
			C186.3,59.6,186.1,58.5,186.1,57.3z M188.6,57.3c0,0.9,0.1,1.8,0.4,2.6s0.7,1.5,1.2,2.1c0.5,0.6,1.2,1.1,1.9,1.4
			c0.7,0.3,1.6,0.5,2.5,0.5c0.9,0,1.7-0.2,2.5-0.5c0.7-0.3,1.4-0.8,1.9-1.4c0.5-0.6,0.9-1.3,1.2-2.1s0.4-1.7,0.4-2.6
			c0-0.9-0.1-1.8-0.4-2.6c-0.3-0.8-0.7-1.5-1.2-2.1c-0.5-0.6-1.2-1.1-1.9-1.4c-0.7-0.3-1.6-0.5-2.5-0.5c-0.9,0-1.7,0.2-2.5,0.5
			c-0.7,0.3-1.4,0.8-1.9,1.4c-0.5,0.6-0.9,1.3-1.2,2.1C188.8,55.5,188.6,56.4,188.6,57.3z"/>
		<path class="st2" d="M204.7,50.6v-1.7h6.5v1.7h-2.1v9.5c0,0.6,0.1,1.2,0.2,1.6c0.1,0.5,0.3,0.9,0.6,1.2c0.3,0.3,0.7,0.6,1.2,0.7
			c0.5,0.2,1.1,0.2,1.7,0.2c0.7,0,1.3-0.1,1.8-0.3c0.5-0.2,0.9-0.4,1.2-0.8s0.5-0.7,0.6-1.2s0.2-1,0.2-1.7v-9.3h-2.1v-1.7h6.5v1.7
			H219c0,1.1,0,2.3,0,3.3c0,1.1,0,2,0,2.9c0,0.9,0,1.6,0,2.1c0,0.6,0,1,0,1.1c0,1-0.2,1.9-0.5,2.7c-0.3,0.7-0.8,1.3-1.3,1.8
			c-0.5,0.5-1.2,0.8-1.9,1s-1.5,0.3-2.3,0.3c-1.3,0-2.3-0.2-3.1-0.5c-0.8-0.3-1.4-0.8-1.9-1.3c-0.5-0.5-0.8-1.1-0.9-1.8
			c-0.2-0.7-0.3-1.4-0.3-2.2c0-0.1,0-0.2,0-0.5c0-0.3,0-0.7,0-1.1s0-0.9,0-1.5c0-0.6,0-1.1,0-1.7s0-1.1,0-1.6c0-0.5,0-1,0-1.4v-1.5
			H204.7z"/>
		<path class="st2" d="M222.5,63.9h2.4V50.6h-2.4v-1.7h8c1,0,1.8,0.1,2.5,0.3c0.7,0.2,1.3,0.5,1.7,0.9c0.4,0.4,0.8,0.8,1,1.4
			c0.2,0.5,0.3,1.1,0.3,1.8c0,1.1-0.3,2.1-0.9,2.8c-0.6,0.7-1.6,1.2-2.8,1.5l3.4,6.4h2.1v1.7h-3.7l-4.1-7.8h-2.8v6.1h2.3v1.7h-6.9
			V63.9z M230.4,56.1c0.6,0,1.1-0.1,1.6-0.3c0.4-0.2,0.7-0.4,1-0.7c0.2-0.3,0.4-0.6,0.5-0.9s0.1-0.7,0.1-1c0-0.8-0.3-1.5-0.9-1.9
			c-0.6-0.5-1.4-0.7-2.4-0.7h-3.1v5.5H230.4z"/>
	</g>
	<g>
		<path class="st2" d="M259.9,61c-0.7-0.2-1.6-0.6-2.6-1c-1.6-0.7-2.7-1-3.3-1c-1.1,0-1.8,0.7-2,2h-2.6c0.2-2.1,0.7-3.7,1.6-4.7
			c0.9-1,2.1-1.5,3.5-1.5c0.5,0,1.1,0.1,1.7,0.3c0.6,0.2,1.1,0.4,1.7,0.6c0.5,0.2,0.9,0.4,1.1,0.4c1.5,0.7,2.6,1.1,3.3,1.1
			c0.6,0,1.1-0.2,1.5-0.5s0.6-0.9,0.8-1.7h2.5c-0.2,2-0.7,3.6-1.5,4.7c-0.8,1.1-2,1.7-3.5,1.7C261.3,61.4,260.6,61.3,259.9,61z"/>
	</g>
	<g>
		<path class="st2" d="M89.8,61.4c-1.5,0-2.6-0.6-3.5-1.7C85.5,58.6,85,57,84.8,55h2.5c0.2,0.8,0.4,1.3,0.8,1.7
			c0.4,0.3,0.9,0.5,1.5,0.5c0.7,0,1.8-0.4,3.3-1.1c0.2-0.1,0.6-0.2,1.1-0.4s1.1-0.4,1.7-0.6c0.6-0.2,1.1-0.3,1.7-0.3
			c1.4,0,2.6,0.5,3.5,1.5s1.5,2.6,1.6,4.7h-2.6c-0.2-1.4-0.9-2-2-2c-0.6,0-1.7,0.3-3.3,1c-1.1,0.4-1.9,0.8-2.6,1
			C91.2,61.3,90.5,61.4,89.8,61.4z"/>
	</g>
</g>
<g>
	<g class="st3">
		<path class="st4" d="M112.3,47.8h-2.1v-1.7h6.6v1.7h-2l4.6,12.3l4.5-12.3h-2v-1.7h6.4v1.7h-2.1l-5.7,15h-2.2L112.3,47.8z"/>
		<path class="st4" d="M129,61.1h1.9V47.8H129v-1.7h6.2v1.7h-1.9v13.3h1.9v1.7H129V61.1z"/>
		<path class="st4" d="M137.2,61.1h2.3V47.8h-2.3v-1.7h14v4.6h-1.9v-2.9h-7.6v5.5h5.2v-1.6h1.4v5.2H147v-1.7h-5.2v5.9h7.6v-3h1.9
			v4.7h-14V61.1z"/>
		<path class="st4" d="M154.3,47.8h-2.1v-1.7h6.4v1.7h-2.1l3.5,11.9l1.8-6l1.7-6h-2v-1.7h7.5v1.7h-2l3.5,11.9l1.8-6l1.7-6h-2.1v-1.7
			h6.2v1.7h-2.1l-4.5,15.1h-2.3l-4.1-13.6l-4.1,13.6h-2.2L154.3,47.8z"/>
		<path class="st4" d="M185.1,54.4c0-1.2,0.2-2.3,0.6-3.4c0.4-1,1-2,1.7-2.7c0.7-0.8,1.6-1.4,2.7-1.8c1.1-0.4,2.3-0.7,3.6-0.7
			c1.3,0,2.5,0.2,3.6,0.7c1.1,0.4,2,1.1,2.7,1.8c0.7,0.8,1.3,1.7,1.7,2.7s0.6,2.2,0.6,3.4s-0.2,2.3-0.6,3.4s-1,2-1.7,2.7
			c-0.7,0.8-1.6,1.4-2.7,1.8c-1.1,0.4-2.3,0.7-3.6,0.7c-1.3,0-2.5-0.2-3.6-0.7c-1.1-0.4-2-1.1-2.7-1.8c-0.7-0.8-1.3-1.7-1.7-2.7
			C185.3,56.8,185.1,55.6,185.1,54.4z M187.6,54.4c0,0.9,0.1,1.8,0.4,2.6s0.7,1.5,1.2,2.1c0.5,0.6,1.2,1.1,1.9,1.4
			c0.7,0.3,1.6,0.5,2.5,0.5c0.9,0,1.7-0.2,2.5-0.5c0.7-0.3,1.4-0.8,1.9-1.4c0.5-0.6,0.9-1.3,1.2-2.1s0.4-1.7,0.4-2.6
			c0-0.9-0.1-1.8-0.4-2.6c-0.3-0.8-0.7-1.5-1.2-2.1c-0.5-0.6-1.2-1.1-1.9-1.4c-0.7-0.3-1.6-0.5-2.5-0.5c-0.9,0-1.7,0.2-2.5,0.5
			c-0.7,0.3-1.4,0.8-1.9,1.4c-0.5,0.6-0.9,1.3-1.2,2.1C187.8,52.6,187.6,53.5,187.6,54.4z"/>
		<path class="st4" d="M203.7,47.8v-1.7h6.5v1.7h-2.1v9.5c0,0.6,0.1,1.2,0.2,1.6c0.1,0.5,0.3,0.9,0.6,1.2c0.3,0.3,0.7,0.6,1.2,0.7
			c0.5,0.2,1.1,0.2,1.7,0.2c0.7,0,1.3-0.1,1.8-0.3c0.5-0.2,0.9-0.4,1.2-0.8s0.5-0.7,0.6-1.2s0.2-1,0.2-1.7v-9.3h-2.1v-1.7h6.5v1.7
			h-2.2c0,1.1,0,2.3,0,3.3c0,1.1,0,2,0,2.9c0,0.9,0,1.6,0,2.1c0,0.6,0,1,0,1.1c0,1-0.2,1.9-0.5,2.7c-0.3,0.7-0.8,1.3-1.3,1.8
			c-0.5,0.5-1.2,0.8-1.9,1s-1.5,0.3-2.3,0.3c-1.3,0-2.3-0.2-3.1-0.5c-0.8-0.3-1.4-0.8-1.9-1.3c-0.5-0.5-0.8-1.1-0.9-1.8
			c-0.2-0.7-0.3-1.4-0.3-2.2c0-0.1,0-0.2,0-0.5c0-0.3,0-0.7,0-1.1s0-0.9,0-1.5c0-0.6,0-1.1,0-1.7s0-1.1,0-1.6c0-0.5,0-1,0-1.4v-1.5
			H203.7z"/>
		<path class="st4" d="M221.5,61.1h2.4V47.8h-2.4v-1.7h8c1,0,1.8,0.1,2.5,0.3c0.7,0.2,1.3,0.5,1.7,0.9c0.4,0.4,0.8,0.8,1,1.4
			c0.2,0.5,0.3,1.1,0.3,1.8c0,1.1-0.3,2.1-0.9,2.8c-0.6,0.7-1.6,1.2-2.8,1.5l3.4,6.4h2.1v1.7h-3.7L229,55h-2.8v6.1h2.3v1.7h-6.9
			V61.1z M229.4,53.3c0.6,0,1.1-0.1,1.6-0.3c0.4-0.2,0.7-0.4,1-0.7c0.2-0.3,0.4-0.6,0.5-0.9s0.1-0.7,0.1-1c0-0.8-0.3-1.5-0.9-1.9
			c-0.6-0.5-1.4-0.7-2.4-0.7h-3.1v5.5H229.4z"/>
	</g>
	<g>
		<path class="st4" d="M258.9,58.2c-0.7-0.2-1.6-0.6-2.6-1c-1.6-0.7-2.7-1-3.3-1c-1.1,0-1.8,0.7-2,2h-2.6c0.2-2.1,0.7-3.7,1.6-4.7
			c0.9-1,2.1-1.5,3.5-1.5c0.5,0,1.1,0.1,1.7,0.3c0.6,0.2,1.1,0.4,1.7,0.6c0.5,0.2,0.9,0.4,1.1,0.4c1.5,0.7,2.6,1.1,3.3,1.1
			c0.6,0,1.1-0.2,1.5-0.5s0.6-0.9,0.8-1.7h2.5c-0.2,2-0.7,3.6-1.5,4.7c-0.8,1.1-2,1.7-3.5,1.7C260.3,58.5,259.6,58.4,258.9,58.2z"/>
	</g>
	<g>
		<path class="st4" d="M88.8,58.5c-1.5,0-2.6-0.6-3.5-1.7c-0.8-1.1-1.3-2.7-1.5-4.7h2.5c0.2,0.8,0.4,1.3,0.8,1.7
			c0.4,0.3,0.9,0.5,1.5,0.5c0.7,0,1.8-0.4,3.3-1.1c0.2-0.1,0.6-0.2,1.1-0.4s1.1-0.4,1.7-0.6c0.6-0.2,1.1-0.3,1.7-0.3
			c1.4,0,2.6,0.5,3.5,1.5s1.5,2.6,1.6,4.7h-2.6c-0.2-1.4-0.9-2-2-2c-0.6,0-1.7,0.3-3.3,1c-1.1,0.4-1.9,0.8-2.6,1
			C90.2,58.4,89.5,58.5,88.8,58.5z"/>
	</g>
</g>
<path class="st6" d="M331,121.8c-10.8,16.4-29.7,22.6-29.7,22.6c-17.2,5-33.8-0.4-33.8-0.4c-11.7,20.3-38.6,8.4-38.6,8.4
	c-24.2,19.7-53.9,18.9-53.9,18.9c-30.1,0.4-53.6-18.9-53.6-18.9c-23.8,13.8-40.1-9.2-40.1-9.2c-39.7,11.7-60.4-19.7-60.4-19.7
	C-1.4,91.7,19,61.4,19,61.4C43.9,26.7,81.3,40,81.3,40c12.9-22.2,40.9-9,40.9-9c28-20.6,52.9-18.7,52.9-18.7
	c33,0.8,53.9,19.1,53.9,19.1c25.3-13.6,39.3,9,39.3,9c38.6-14,61.9,21,61.9,21c8.2,12.7,10.2,24.2,9.5,33.8
	C339.7,95.2,339.8,108.1,331,121.8z"/>
</svg>
